<svg xmlns="http://www.w3.org/2000/svg" width="168" height="112" viewBox="0 0 168 112">
  <defs>
    <linearGradient id="top" x1="0" y1="0" x2="1" y2="1"><stop stop-color="#c4d2bd"/><stop offset=".42" stop-color="#86a99b"/><stop offset="1" stop-color="#526e7c"/></linearGradient>
    <linearGradient id="left" x1="0" y1="0" x2="0" y2="1"><stop stop-color="#3d626d"/><stop offset="1" stop-color="#172e3d"/></linearGradient>
    <linearGradient id="right" x1="0" y1="0" x2="0" y2="1"><stop stop-color="#4c7580"/><stop offset="1" stop-color="#203c49"/></linearGradient>
  </defs>
  <path d="M84 8 164 49 84 90 4 49Z" fill="#0b202b" opacity=".52"/>
  <path d="M84 3 164 44 84 85 4 44Z" fill="url(#top)" stroke="#e2dfb9" stroke-width="2"/>
  <path d="m4 44 80 41v22L4 66Z" fill="url(#left)" stroke="#172d3a" stroke-width="2"/>
  <path d="m164 44-80 41v22l80-43Z" fill="url(#right)" stroke="#172d3a" stroke-width="2"/>
  <path d="m18 45 66 34 66-34M84 12 145 43 84 74 23 43Z" fill="none" stroke="#dfeec6" stroke-width="2" opacity=".28"/>
  <path d="m32 58 52 27m-52-14 52 27m52-40-52 27m52-13-52 27" stroke="#8cc1af" stroke-width="2" opacity=".25"/>
  <circle cx="84" cy="43" r="5" fill="#f1d276" opacity=".88"/>
</svg>
