<svg xmlns="http://www.w3.org/2000/svg" width="144" height="72" viewBox="0 0 144 72">
  <path d="M72 0 144 36 72 72 0 36Z" fill="none"/>
  <path d="M3 34c19-10 35-11 48-6 13 5 25 5 38-2 17-9 34-7 55 3l-72 39Z" fill="#5a765c" opacity=".3"/>
  <path d="M20 36c10-5 18-5 26-1m40 19c9-4 17-4 25-1" fill="none" stroke="#90a879" stroke-width="2" stroke-linecap="round" opacity=".22"/>
  <path d="m36 22 6 4m50 27 7-4m20-24 6 3" stroke="#2d4b42" stroke-width="3" stroke-linecap="round" opacity=".3"/>
  <circle cx="62" cy="39" r="1.5" fill="#d8c673" opacity=".42"/>
</svg>
